<?xml version="1.0" encoding="UTF-8" standalone="no"?>
<svg
   viewBox="0 0 1080 1080"
   fill="none"
   version="1.1"
   id="svg14"
   sodipodi:docname="avatar.svg"
   inkscape:version="1.3 (0e150ed, 2023-07-21)"
   xmlns:inkscape="http://www.inkscape.org/namespaces/inkscape"
   xmlns:sodipodi="http://sodipodi.sourceforge.net/DTD/sodipodi-0.dtd"
   xmlns="http://www.w3.org/2000/svg"
   xmlns:svg="http://www.w3.org/2000/svg">
  <sodipodi:namedview
     id="namedview14"
     pagecolor="#ffffff"
     bordercolor="#000000"
     borderopacity="0.25"
     inkscape:showpageshadow="2"
     inkscape:pageopacity="0.0"
     inkscape:pagecheckerboard="0"
     inkscape:deskcolor="#d1d1d1"
     inkscape:zoom="0.32015183"
     inkscape:cx="557.54797"
     inkscape:cy="571.6038"
     inkscape:window-width="1728"
     inkscape:window-height="987"
     inkscape:window-x="0"
     inkscape:window-y="38"
     inkscape:window-maximized="1"
     inkscape:current-layer="notion-avatar" />
  <defs
     id="defs2">
    <filter
       id="filter"
       x="-0.036069399"
       y="-0.02826087"
       width="1.0693898"
       height="1.0565217"
       filterUnits="objectBoundingBox"
       primitiveUnits="userSpaceOnUse"
       color-interpolation-filters="linearRGB">
      <feMorphology
         operator="dilate"
         radius="20 20"
         in="SourceAlpha"
         result="morphology"
         id="feMorphology1" />
      <feFlood
         flood-color="#ffffff"
         flood-opacity="1"
         result="flood"
         id="feFlood1" />
      <feComposite
         in="flood"
         in2="morphology"
         operator="in"
         result="composite"
         id="feComposite1" />
      <feMerge
         result="merge"
         id="feMerge2">
        <feMergeNode
           in="composite"
           result="mergeNode"
           id="feMergeNode1" />
        <feMergeNode
           in="SourceGraphic"
           result="mergeNode1"
           id="feMergeNode2" />
      </feMerge>
    </filter>
  </defs>
  <g
     id="notion-avatar"
     filter="url(#filter)"
     transform="translate(83.499389,-70.999961)">
    <g
       id="notion-avatar-face"
       fill="#ffffff">
      <!--?xml version="1.0" encoding="UTF-8"?-->
      <title
         id="title2">Face/ 8</title>
      <g
         id="Face/-8"
         stroke="none"
         stroke-width="1"
         fill-rule="evenodd"
         stroke-linecap="round"
         stroke-linejoin="round">
        <path
           d="m 532,379 c 132.54834,0 240,107.45166 240,240 0,132.54834 -47.45166,280 -180,280 C 492.56022,899 373.47605,816.01083 320.18951,718.58499 317.49813,718.85968 314.76545,719 312,719 c -44.18278,0 -80,-35.81722 -80,-80 0,-39.86504 29.15884,-72.91967 67.31209,-78.99945 C 325.5993,455.97921 419.80992,379 532,379 Z m -236.1411,245.54519 8.2822,30.90962"
           id="Path"
           stroke="#000000"
           stroke-width="24" />
      </g>
    </g>
    <g
       id="notion-avatar-nose">
      <!--?xml version="1.0" encoding="UTF-8"?-->
      <title
         id="title3">Nose/ 1</title>
      <g
         id="Nose/-1"
         stroke="none"
         stroke-width="1"
         fill="none"
         fill-rule="evenodd"
         stroke-linecap="round"
         stroke-linejoin="round">
        <path
           d="m 633.53255,569.00685 c 17.75927,53.38862 27.55412,83.54851 29.38455,90.47967 1.83044,6.93116 0.83195,14.1046 -2.99546,21.52033"
           id="Line"
           stroke="#000000"
           stroke-width="16"
           transform="rotate(-3.225647,648.66897,625.00685)" />
      </g>
    </g>
    <g
       id="notion-avatar-mouth">
      <!--?xml version="1.0" encoding="UTF-8"?-->
      <title
         id="title4">Mouth/ 6</title>
      <g
         id="Mouth/-6"
         stroke="none"
         stroke-width="1"
         fill="none"
         fill-rule="evenodd"
         stroke-linecap="round"
         stroke-linejoin="round">
        <path
           d="m 595.53509,787 c -12.51785,-2.22242 -26.42867,-7.05575 -41.73245,-14.5 -15.30378,-7.44425 -21.26556,-12.27758 -17.88534,-14.5 23.84712,6.66667 47.69423,10 71.54135,10 23.84712,0 47.69423,-3.33333 71.54135,-10 -1.98726,4.83333 -7.94904,9.66667 -17.88534,14.5 -9.9363,4.83333 -23.84711,9.66667 -41.73245,14.5"
           id="path4"
           stroke="#000000"
           stroke-width="16" />
      </g>
    </g>
    <g
       id="notion-avatar-eyes">
      <g
         id="Eyes/ 11">
        <g
           id="Group 3">
          <path
             id="path5"
             d="m 660,536.5 c 0,0 8.471,-3.5 19.765,-3.5 11.294,0 23.046,5 43.294,5 20.247,0 32.941,-5 32.941,-5"
             stroke="#000000"
             stroke-width="12"
             stroke-linecap="round"
             stroke-linejoin="round" />
          <path
             id="Path_2"
             d="m 618,536.5 c 0,0 -8.471,-3.5 -19.765,-3.5 -11.294,0 -23.046,5 -43.294,5 C 534.694,538 522,533 522,533"
             stroke="#000000"
             stroke-width="12"
             stroke-linecap="round"
             stroke-linejoin="round" />
        </g>
      </g>
    </g>
    <g
       id="notion-avatar-eyebrows">
      <!--?xml version="1.0" encoding="UTF-8"?-->
      <title
         id="title5">Eyebrows/ 4</title>
      <g
         id="Eyebrows/-4"
         stroke="none"
         stroke-width="1"
         fill="none"
         fill-rule="evenodd"
         stroke-linecap="round"
         stroke-linejoin="round">
        <g
           id="Group"
           transform="translate(525,504)"
           stroke="#000000"
           stroke-width="12">
          <path
             d="M 0,12 C 12.888889,4 27.888889,0 45,0 62.111111,0 77.111111,4 90,12"
             id="path6" />
          <path
             d="m 138,12 c 12.88889,-8 27.88889,-12 45,-12 17.11111,0 32.11111,4 45,12"
             id="path7" />
        </g>
      </g>
    </g>
    <g
       id="notion-avatar-glasses">
      <!--?xml version="1.0" encoding="UTF-8"?-->
      <title
         id="title7">Glasses/ 8</title>
      <g
         id="Glasses/-8"
         stroke="none"
         stroke-width="1"
         fill="none"
         fill-rule="evenodd"
         stroke-linecap="round"
         stroke-linejoin="round">
        <g
           id="g10"
           transform="translate(293,475)"
           stroke="#000000">
          <path
             d="M 328.31869,48.941176 C 333.96575,25.411765 327.37751,0 252.0834,0 c -75.29412,0 -79.05883,30.117647 -81.88236,48.941176 -2.82353,18.82353 -13.17647,91.294114 57.41177,94.117644 70.58823,2.82353 95.05882,-70.588232 100.70588,-94.117644 z"
             id="path8"
             stroke-width="8"
             fill="#0c0c0c" />
          <path
             d="M 523.46091,48.941176 C 529.10797,25.411765 522.51973,0 447.22562,0 371.9315,0 368.16679,30.117647 365.34326,48.941176 c -2.82353,18.82353 -13.17647,91.294114 57.41177,94.117644 70.58823,2.82353 95.05882,-70.588232 100.70588,-94.117644 z"
             id="path9"
             stroke-width="8"
             fill="#0c0c0c"
             transform="matrix(-1,0,0,1,888.14561,0)" />
          <line
             x1="301.96576"
             y1="7.5294118"
             x2="391.3775"
             y2="7.5294118"
             id="line9"
             stroke-width="8" />
          <path
             d="m 301.96575,35.764706 c 15.24706,-1.254902 30.30588,-1.882353 45.17647,-1.882353 14.87059,0 29.61569,0.627451 44.23529,1.882353"
             id="path10"
             stroke-width="8" />
          <line
             x1="217"
             y1="40"
             x2="1.3111035"
             y2="83.339355"
             id="line10"
             stroke-width="16"
             transform="rotate(1.361411,109.15555,61.669679)" />
        </g>
      </g>
    </g>
    <g
       id="notion-avatar-hair">
      <!--?xml version="1.0" encoding="UTF-8"?-->
      <title
         id="title10">Hairstyle/ 26</title>
      <g
         id="Hairstyle/-26"
         stroke="none"
         stroke-width="1"
         fill="none"
         fill-rule="evenodd"
         stroke-linecap="round"
         stroke-linejoin="round">
        <path
           d="M 487,151 C 427,151 384.33333,172 359,214 296.33333,203.33333 247.33333,240.33333 212,325 195.3108,364.9911 183.12354,443.78156 177.13924,514.20964 176.03222,527.23796 143.67172,580.84255 143,593 c -0.87475,15.83221 23,-20 19,8 -4,28 -60.11382,101.10528 -64,118 -8.849731,38.47317 43.20212,5.54595 28.46314,46.68422 C 100.36018,838.54071 79.933175,911.17561 118,968 c 69,103 100,-9 174,38 24.90504,15.8181 40.7831,36.8245 61,47 18.60324,9.3633 44.2699,15.3633 77,18 2.92006,-31.7868 0.25339,-59.1201 -8,-82 -3.29127,-9.124 -11.29127,-20.124 -24,-33 9.33333,-28 15,-56 17,-84 4.08731,-57.22234 -43.89092,-71.41605 -56,-84 -17.6486,-18.3407 -33.31527,-41.3407 -47,-69 -53.33333,-9.33333 -80,-36 -80,-80 0,-66 54,-73 79,-73 16.66667,0 32.66667,4 48,12 15.33333,-20 24.33333,-44.66667 27,-74 2.66667,-29.33333 40.66667,-69 114,-119 36,24.66667 67.33333,42.33333 94,53 43.34805,17.33922 93.3247,1.86525 114,23 30,30.66667 51.33333,75.66667 64,135 C 789.33333,459.33333 776,357.66667 732,291 666,191 577,151 487,151 Z"
           id="path11"
           stroke="#000000"
           stroke-width="12"
           fill="#000000" />
      </g>
    </g>
    <g
       id="notion-avatar-accessories">
      <!--?xml version="1.0" encoding="UTF-8"?-->
      <title
         id="title11">Accessories/ 8</title>
      <g
         id="Accessories/-8"
         stroke="none"
         stroke-width="1"
         fill="none"
         fill-rule="evenodd"
         stroke-linecap="round"
         stroke-linejoin="round">
        <line
           x1="294"
           y1="695"
           x2="294"
           y2="743"
           id="line11"
           stroke="#000000"
           stroke-width="12" />
        <circle
           id="Oval"
           stroke="#000000"
           stroke-width="12"
           fill="#ffffff"
           cx="294"
           cy="755"
           r="12" />
        <circle
           id="circle11"
           stroke="#000000"
           stroke-width="12"
           fill="#ffffff"
           cx="294"
           cy="815"
           r="48" />
        <circle
           id="circle12"
           stroke="#000000"
           stroke-width="12"
           cx="294"
           cy="779"
           r="12" />
        <circle
           id="circle13"
           stroke="#000000"
           stroke-width="12"
           cx="294"
           cy="791"
           r="24" />
      </g>
    </g>
    <g
       id="notion-avatar-details">
      <!--?xml version="1.0" encoding="UTF-8"?-->
      <title
         id="title13">Details/ 0</title>
      <g
         id="Details/-0"
         stroke="none"
         stroke-width="1"
         fill="none"
         fill-rule="evenodd" />
    </g>
    <g
       id="notion-avatar-beard">
      <!--?xml version="1.0" encoding="UTF-8"?-->
      <title
         id="title14">Beard/ 0</title>
      <g
         id="Beard/-0"
         stroke="none"
         stroke-width="1"
         fill="none"
         fill-rule="evenodd" />
    </g>
  </g>
</svg>
